<svg xmlns="http://www.w3.org/2000/svg" width="44" height="44" viewBox="0 0 44 44">
  <!-- HDR off: outlined badge. Monochrome: the widget recolours it with the panel text colour. -->
  <path fill="#000000" fill-rule="evenodd" d="M6 9H38A5 5 0 0 1 43 14V30A5 5 0 0 1 38 35H6A5 5 0 0 1 1 30V14A5 5 0 0 1 6 9Z M6 11.5H38A2.5 2.5 0 0 1 40.5 14V30A2.5 2.5 0 0 1 38 32.5H6A2.5 2.5 0 0 1 3.5 30V14A2.5 2.5 0 0 1 6 11.5Z M6 15H8.5V20.75H12.5V15H15V29H12.5V23.25H8.5V29H6Z M17.5 15H21.5A5 7 0 0 1 21.5 29H17.5Z M20 17.5H21.5A2.5 4.5 0 0 1 21.5 26.5H20Z M29 15H33A4 4.375 0 0 1 33 23.75L38 29H34.5L31.5 25.85V29H29Z M31.5 17.5H33A1.5 1.875 0 0 1 33 21.25H31.5Z"/>
</svg>
